<svg xmlns="http://www.w3.org/2000/svg" width="91.26" height="90.23" viewBox="0 0 91.26 90.23">
  <g id="Group_1" data-name="Group 1" transform="translate(0.001 -0.36)">
    <path id="Path_2" data-name="Path 2" d="M19.911,22.255H17.249v-7.98H6.847v7.98H4.211V3.6H6.847v8.254h10.4V3.6h2.662Z" transform="translate(7.935 6.113)"/>
    <path id="Path_3" data-name="Path 3" d="M31.137,15.784v6.471H28.447V15.784L20.764,3.605h2.942l6.076,9.655,6.1-9.655h2.942Z" transform="translate(39.118 6.113)"/>
    <path id="Path_4" data-name="Path 4" d="M12.47,37.945c2.8,0,4.355-1.344,4.355-3.1,0-1.811-1.609-2.8-4.271-2.8H6.564v5.895h5.909ZM6.561,29.717h5.272c2.691,0,4.161-1.151,4.161-3.017,0-1.727-1.442-2.8-3.968-2.8H6.561v5.814Zm12.871,5.43c0,3.045-2.662,5.1-6.852,5.1H3.928V21.6H12.3c3.856,0,6.215,1.837,6.215,4.773a4.27,4.27,0,0,1-3,4.222,4.4,4.4,0,0,1,3.911,4.551h0Z" transform="translate(7.402 40.011)"/>
    <path id="Path_5" data-name="Path 5" d="M34.107,36.3v3.948H31.584V36.3H21.6V34.681L27.2,21.6h2.691L24.706,34.05h6.878V28.265h2.523V34.05h2.829V36.3Z" transform="translate(40.688 40.013)"/>
    <path id="Path_6" data-name="Path 6" d="M91.259,44.371H46.743V.36H44.514V44.371H0v2.2H44.514V90.59h2.229V46.574H91.259Z"/>
  </g>
</svg>
