<?xml version="1.0" standalone="no"?>
<!DOCTYPE svg PUBLIC "-//W3C//DTD SVG 20010904//EN"
 "http://www.w3.org/TR/2001/REC-SVG-20010904/DTD/svg10.dtd">
<svg version="1.0" xmlns="http://www.w3.org/2000/svg"
 width="728.000000pt" height="728.000000pt" viewBox="0 0 728.000000 728.000000"
 preserveAspectRatio="xMidYMid meet">
<metadata>
Created by potrace 1.14, written by Peter Selinger 2001-2017
</metadata>
<g transform="translate(0.000000,728.000000) scale(0.100000,-0.100000)"
fill="#000000" stroke="none">
<path d="M3550 5485 l0 -1755 -27 0 c-16 -1 -814 -1 -1776 -1 l-1747 -1 0 -88
0 -87 1763 -1 c969 0 1768 -1 1775 -1 9 -1 12 -359 12 -1756 l0 -1755 90 0 90
0 0 1755 c0 1397 3 1755 13 1756 6 0 804 1 1772 2 l1760 2 3 87 3 87 -1738 0
c-956 0 -1755 0 -1775 1 l-38 0 0 1755 0 1755 -90 0 -90 0 0 -1755z"/>
<path d="M974 6491 c-2 -2 -4 -338 -4 -745 l0 -741 105 0 105 0 0 317 0 318
23 1 c36 0 771 1 790 0 16 -1 17 -23 17 -319 l0 -317 105 0 105 0 1 40 c3 202
-1 1437 -5 1443 -2 4 -49 7 -103 7 l-98 -1 -5 -329 -5 -330 -410 0 -410 0 -5
330 -5 330 -98 0 c-54 0 -100 -2 -103 -4z"/>
<path d="M4780 6491 c0 -2 19 -34 42 -70 177 -280 248 -393 248 -397 0 -3 5
-10 10 -17 21 -24 130 -198 130 -208 0 -5 5 -9 10 -9 6 0 10 -4 10 -9 0 -9 40
-73 120 -193 l35 -53 5 -265 5 -264 103 -1 c56 0 103 2 103 5 1 3 2 120 3 260
l2 255 29 45 c16 25 34 53 40 62 5 9 30 49 55 88 25 39 50 79 55 88 6 10 27
45 49 77 46 72 86 135 182 287 82 131 131 208 165 261 44 65 55 58 -96 61 -91
2 -125 -9 -125 -40 0 -7 -4 -14 -8 -16 -5 -1 -33 -43 -64 -93 -101 -164 -187
-300 -198 -312 -5 -7 -10 -15 -10 -18 0 -4 -11 -21 -25 -39 -14 -18 -25 -36
-25 -39 0 -4 -30 -52 -66 -107 -61 -92 -84 -117 -84 -89 0 11 -212 351 -238
382 -8 9 -11 17 -6 17 5 0 4 4 -1 8 -9 6 -57 77 -90 133 -12 20 -110 177 -124
198 -7 12 -36 15 -125 15 -64 1 -116 -1 -116 -3z"/>
<path d="M911 2350 c-4 -3 -7 -338 -7 -745 l1 -740 373 0 c339 0 449 6 550 29
12 3 52 19 88 37 200 99 279 312 188 506 -44 93 -143 173 -238 192 l-31 7 46
22 c121 59 191 183 185 325 -4 82 -20 132 -59 189 -30 44 -114 117 -140 122
-7 2 -25 9 -42 16 -44 18 -92 29 -165 36 -77 8 -739 11 -749 4z m799 -206 c65
-22 130 -82 146 -135 25 -81 -10 -193 -74 -237 -86 -59 -141 -68 -442 -67
l-225 0 -1 225 c0 124 2 229 4 233 2 5 124 7 271 5 229 -4 274 -7 321 -24z
m55 -647 c56 -18 128 -74 149 -116 18 -36 20 -123 3 -163 -35 -83 -135 -150
-243 -162 -39 -5 -303 -8 -524 -6 l-35 0 1 228 c0 125 2 230 2 233 1 4 136 5
300 4 241 -2 306 -5 347 -18z"/>
<path d="M5429 2352 c-10 -2 -89 -175 -208 -455 -106 -249 -206 -480 -222
-515 -23 -50 -29 -78 -29 -133 l0 -69 68 0 c37 -1 216 -2 397 -3 l330 -2 1
-145 c1 -80 2 -150 3 -156 1 -7 34 -11 99 -10 l97 1 1 155 0 155 95 2 c51 1
103 2 114 2 21 1 21 8 16 157 -1 19 -7 22 -41 20 -22 0 -40 2 -40 6 0 4 -6 5
-13 2 -23 -8 -97 -10 -97 -2 0 4 -6 5 -14 2 -20 -8 -21 10 -20 244 l1 212
-101 0 -101 0 0 -225 c0 -217 0 -225 -20 -232 -28 -9 -57 -9 -77 0 -10 4 -18
4 -18 0 0 -4 -27 -8 -60 -8 -33 0 -60 4 -60 8 0 5 -5 5 -10 2 -6 -4 -34 -6
-63 -6 -148 1 -199 1 -206 -3 -4 -3 -13 -1 -20 3 -11 7 -11 13 0 32 7 13 14
29 15 34 2 9 165 403 199 480 23 52 185 444 185 447 0 4 -182 4 -201 0z"/>
</g>
</svg>
